<svg width="23" height="20" viewBox="0 0 23 20" fill="none" xmlns="http://www.w3.org/2000/svg">
<path fill-rule="evenodd" clip-rule="evenodd" d="M16.1 0C16.7351 0 17.25 0.497461 17.25 1.11111H19.55C21.4554 1.11111 23 2.6035 23 4.44444V16.6667C23 18.5076 21.4554 20 19.55 20H3.45C1.54462 20 0 18.5076 0 16.6667V4.44444C0 2.6035 1.54462 1.11111 3.45 1.11111H5.75C5.75 0.497461 6.26487 0 6.9 0C7.53513 0 8.05 0.497461 8.05 1.11111H14.95C14.95 0.497461 15.4649 0 16.1 0ZM5.75 3.33333H3.45C2.81487 3.33333 2.3 3.83079 2.3 4.44444V16.1111C2.3 17.0316 3.07231 17.7778 4.025 17.7778H18.975C19.9277 17.7778 20.7 17.0316 20.7 16.1111V4.44444C20.7 3.83079 20.1851 3.33333 19.55 3.33333H17.25C17.25 3.94698 16.7351 4.44444 16.1 4.44444C15.4649 4.44444 14.95 3.94698 14.95 3.33333H8.05C8.05 3.94698 7.53513 4.44444 6.9 4.44444C6.26487 4.44444 5.75 3.94698 5.75 3.33333ZM8.28 14.4444C8.7881 14.4444 9.2 14.8424 9.2 15.3333V15.7778C9.2 16.2687 8.7881 16.6667 8.28 16.6667H7.82C7.3119 16.6667 6.9 16.2687 6.9 15.7778V15.3333C6.9 14.8424 7.3119 14.4444 7.82 14.4444H8.28ZM4.83 14.4444C5.3381 14.4444 5.75 14.8424 5.75 15.3333V15.7778C5.75 16.2687 5.3381 16.6667 4.83 16.6667H4.37C3.8619 16.6667 3.45 16.2687 3.45 15.7778V15.3333C3.45 14.8424 3.8619 14.4444 4.37 14.4444H4.83ZM11.73 14.4444C12.2381 14.4444 12.65 14.8424 12.65 15.3333V15.7778C12.65 16.2687 12.2381 16.6667 11.73 16.6667H11.27C10.7619 16.6667 10.35 16.2687 10.35 15.7778V15.3333C10.35 14.8424 10.7619 14.4444 11.27 14.4444H11.73ZM15.18 14.4444C15.6881 14.4444 16.1 14.8424 16.1 15.3333V15.7778C16.1 16.2687 15.6881 16.6667 15.18 16.6667H14.72C14.2119 16.6667 13.8 16.2687 13.8 15.7778V15.3333C13.8 14.8424 14.2119 14.4444 14.72 14.4444H15.18ZM8.28 10.5556C8.7881 10.5556 9.2 10.9535 9.2 11.4444V11.8889C9.2 12.3798 8.7881 12.7778 8.28 12.7778H7.82C7.3119 12.7778 6.9 12.3798 6.9 11.8889V11.4444C6.9 10.9535 7.3119 10.5556 7.82 10.5556H8.28ZM4.83 10.5556C5.3381 10.5556 5.75 10.9535 5.75 11.4444V11.8889C5.75 12.3798 5.3381 12.7778 4.83 12.7778H4.37C3.8619 12.7778 3.45 12.3798 3.45 11.8889V11.4444C3.45 10.9535 3.8619 10.5556 4.37 10.5556H4.83ZM11.73 10.5556C12.2381 10.5556 12.65 10.9535 12.65 11.4444V11.8889C12.65 12.3798 12.2381 12.7778 11.73 12.7778H11.27C10.7619 12.7778 10.35 12.3798 10.35 11.8889V11.4444C10.35 10.9535 10.7619 10.5556 11.27 10.5556H11.73ZM15.18 10.5556C15.6881 10.5556 16.1 10.9535 16.1 11.4444V11.8889C16.1 12.3798 15.6881 12.7778 15.18 12.7778H14.72C14.2119 12.7778 13.8 12.3798 13.8 11.8889V11.4444C13.8 10.9535 14.2119 10.5556 14.72 10.5556H15.18ZM18.63 10.5556C19.1381 10.5556 19.55 10.9535 19.55 11.4444V11.8889C19.55 12.3798 19.1381 12.7778 18.63 12.7778H18.17C17.6619 12.7778 17.25 12.3798 17.25 11.8889V11.4444C17.25 10.9535 17.6619 10.5556 18.17 10.5556H18.63ZM8.28 6.66667C8.7881 6.66667 9.2 7.06464 9.2 7.55556V8C9.2 8.49092 8.7881 8.88889 8.28 8.88889H7.82C7.3119 8.88889 6.9 8.49092 6.9 8V7.55556C6.9 7.06464 7.3119 6.66667 7.82 6.66667H8.28ZM11.73 6.66667C12.2381 6.66667 12.65 7.06464 12.65 7.55556V8C12.65 8.49092 12.2381 8.88889 11.73 8.88889H11.27C10.7619 8.88889 10.35 8.49092 10.35 8V7.55556C10.35 7.06464 10.7619 6.66667 11.27 6.66667H11.73ZM15.18 6.66667C15.6881 6.66667 16.1 7.06464 16.1 7.55556V8C16.1 8.49092 15.6881 8.88889 15.18 8.88889H14.72C14.2119 8.88889 13.8 8.49092 13.8 8V7.55556C13.8 7.06464 14.2119 6.66667 14.72 6.66667H15.18ZM18.63 6.66667C19.1381 6.66667 19.55 7.06464 19.55 7.55556V8C19.55 8.49092 19.1381 8.88889 18.63 8.88889H18.17C17.6619 8.88889 17.25 8.49092 17.25 8V7.55556C17.25 7.06464 17.6619 6.66667 18.17 6.66667H18.63Z" fill="#333333"/>
</svg>
