<svg width="32" height="22" viewBox="0 0 32 22" fill="none" xmlns="http://www.w3.org/2000/svg">
<path fill-rule="evenodd" clip-rule="evenodd" d="M21.5417 0.0749512C24.2962 0.0749512 26.5292 2.30793 26.5292 5.06245C26.5292 7.81697 24.2962 10.05 21.5417 10.05C18.7872 10.05 16.5542 7.81697 16.5542 5.06245C16.5542 2.30793 18.7872 0.0749512 21.5417 0.0749512ZM21.5417 2.13328C19.9239 2.13328 18.6125 3.44472 18.6125 5.06245C18.6125 6.68019 19.9239 7.99162 21.5417 7.99162C23.1594 7.99162 24.4708 6.68019 24.4708 5.06245C24.4708 3.44472 23.1594 2.13328 21.5417 2.13328ZM16.2298 3.47808C16.0803 3.98007 16 4.51188 16 5.06245C16 5.61294 16.0803 6.14468 16.2298 6.64661L1.75001 6.64578C0.875554 6.64578 0.166672 5.9369 0.166672 5.06245C0.166672 4.188 0.875554 3.47912 1.75001 3.47912L16.2298 3.47808ZM26.8535 3.47808L30.25 3.47912C31.1245 3.47912 31.8333 4.188 31.8333 5.06245C31.8333 5.9369 31.1245 6.64578 30.25 6.64578L26.8536 6.64661C27.0031 6.14468 27.0833 5.61294 27.0833 5.06245C27.0833 4.51188 27.003 3.98007 26.8535 3.47808ZM9.66667 11.95C12.4212 11.95 14.6542 14.1829 14.6542 16.9374C14.6542 19.692 12.4212 21.9249 9.66667 21.9249C6.91215 21.9249 4.67917 19.692 4.67917 16.9374C4.67917 14.1829 6.91215 11.95 9.66667 11.95ZM9.66667 14.0083C8.04894 14.0083 6.7375 15.3197 6.7375 16.9374C6.7375 18.5552 8.04894 19.8666 9.66667 19.8666C11.2844 19.8666 12.5958 18.5552 12.5958 16.9374C12.5958 15.3197 11.2844 14.0083 9.66667 14.0083ZM4.3548 15.3531C4.20529 15.8551 4.125 16.3869 4.125 16.9374C4.125 17.4879 4.20527 18.0197 4.35474 18.5216L1.75001 18.5208C0.875554 18.5208 0.166672 17.8119 0.166672 16.9374C0.166672 16.063 0.875554 15.3541 1.75001 15.3541L4.3548 15.3531ZM14.9785 15.3531L30.25 15.3541C31.1245 15.3541 31.8333 16.063 31.8333 16.9374C31.8333 17.8119 31.1245 18.5208 30.25 18.5208L14.9785 18.5216C15.1281 18.0197 15.2083 17.4879 15.2083 16.9374C15.2083 16.3869 15.128 15.8551 14.9785 15.3531Z" fill="#333333"/>
</svg>
