<svg width="23" height="21" viewBox="0 0 23 21" fill="none" xmlns="http://www.w3.org/2000/svg">
<path fill-rule="evenodd" clip-rule="evenodd" d="M11.5 4.28046L20.6971 12.5737L20.6976 17.4876C20.6976 19.3833 19.2199 20.9283 17.3713 20.9976L17.2417 21H14.9358C14.3286 21 13.831 20.5224 13.787 19.9166L13.7839 19.8292V17.1196C13.7839 15.87 12.8156 14.8498 11.5987 14.7891L11.4839 14.7863C10.2483 14.7863 9.24259 15.7686 9.18277 17.0031L9.17996 17.1196V19.8292C9.17996 20.4464 8.71003 20.9521 8.11397 20.9968L8.028 21H5.72212C3.85686 21 2.33675 19.4981 2.26862 17.6192L2.26607 17.4876V12.607L11.5 4.28046ZM10.7216 0.291222C11.1309 -0.0742329 11.7315 -0.0957304 12.1633 0.22673L12.2422 0.291222L22.6099 9.65774C23.0864 10.0848 23.1328 10.8234 22.7135 11.3086C22.3564 11.7203 21.7777 11.8161 21.319 11.5739L12.264 3.40846L12.1849 3.3432C11.7789 3.03732 11.2211 3.03733 10.8151 3.34323L10.736 3.40848L1.78628 11.4796C1.31176 11.7984 0.67024 11.718 0.287174 11.2756C-0.0987817 10.8298 -0.0926663 10.1663 0.287207 9.72853L0.353977 9.65774L10.7216 0.291222Z" fill="#3E69FE"/>
</svg>
