<svg width="22" height="26" viewBox="0 0 22 26" fill="none" xmlns="http://www.w3.org/2000/svg">
<path fill-rule="evenodd" clip-rule="evenodd" d="M11 3.70513C15.9673 3.70513 19.9941 7.72309 19.9941 12.6795L19.9937 19.0894L20.6526 19.0897C21.3622 19.0897 21.9375 19.6637 21.9375 20.3718C21.9375 21.0799 21.3622 21.6538 20.6526 21.6538H14.8546C14.8546 23.778 13.1289 25.5 11 25.5C8.87115 25.5 7.14537 23.778 7.14537 21.6538H1.34738C0.637758 21.6538 0.0625 21.0799 0.0625 20.3718C0.0625 19.6637 0.637758 19.0897 1.34738 19.0897L2.00562 19.0894L2.00587 12.6795C2.00587 7.72309 6.03268 3.70513 11 3.70513ZM12.2849 21.6538H9.71513C9.71513 22.3619 10.2904 22.9359 11 22.9359C11.7096 22.9359 12.2849 22.3619 12.2849 21.6538ZM11 6.26923C7.45192 6.26923 4.57562 9.1392 4.57562 12.6795V19.0897H17.4244V12.6795C17.4244 9.1392 14.5481 6.26923 11 6.26923ZM12.2849 0.5C12.9945 0.5 13.5697 1.07399 13.5697 1.78205C13.5697 2.49011 12.9945 3.0641 12.2849 3.0641H9.71512C9.00551 3.0641 8.43025 2.49011 8.43025 1.78205C8.43025 1.07399 9.00551 0.5 9.71512 0.5H12.2849Z" fill="#333333"/>
</svg>
